<?xml version="1.0" ?><svg viewBox="0 0 96 96" xmlns="http://www.w3.org/2000/svg"><title/><g data-name="Layer 2" id="Layer_2"><g data-name="Layer 2" id="Layer_2-2"><path d="M61.25,49.63C54.11,45.26,43.74,44,35.32,46.52a1.75,1.75,0,0,0,1,3.34c7.26-2.31,16.71-1.16,22.93,2.65a1.73,1.73,0,0,0,2.42-.58A1.62,1.62,0,0,0,61.25,49.63Z"/><path d="M64.14,41.91c-8.53-5.07-22-5.53-30.19-3.11a2.11,2.11,0,0,0,1.26,4c7-2.19,19.36-1.73,26.74,2.65a2.41,2.41,0,0,0,3-.58A2.23,2.23,0,0,0,64.14,41.91Z"/><path d="M58.37,56.32c-6-3.69-13.6-4.5-22.36-2.54a1.42,1.42,0,1,0,.69,2.76C44.77,54.71,51.57,55.4,57,58.74a1.4,1.4,0,1,0,1.38-2.42Z"/><path d="M48,0A48,48,0,1,0,96,48,48,48,0,0,0,48,0Zm.35,71.07A23.05,23.05,0,1,1,71.4,48,23.12,23.12,0,0,1,48.35,71.07Z"/></g></g></svg>